<?xml version="1.0"?><svg width="640" height="480" xmlns="http://www.w3.org/2000/svg">
 <title>ORANGE SKYLINE</title>
 <metadata id="metadata7">image/svg+xml</metadata>
 <g>
  <title>Layer 1</title>
  <path id="path2177" d="m20.49609,263.914368c0,-61.198547 0.05929,-76.685059 0.293671,-76.710602c0.161549,-0.017639 0.69421,-0.084656 1.18367,-0.148956c0.658079,-0.086395 0.8724,-0.053101 0.822359,0.127777c-0.03721,0.134552 0.146191,0.337524 0.40756,0.45108c0.268589,0.116699 0.439831,0.351563 0.39395,0.540375c-0.0893,0.366791 0.74979,0.485626 1.01049,0.143097c0.079849,-0.10495 0.033239,-0.190857 -0.10364,-0.190857c-0.13686,0 -0.2488,-0.085846 -0.2488,-0.190796c0,-0.10495 0.37718,-0.190796 0.838181,-0.190796c0.725119,0 0.818449,0.050354 0.69219,0.373505c-0.118031,0.302002 0.001169,0.40451 0.622749,0.535309c0.5376,0.113098 0.809481,0.302032 0.904329,0.628296c0.18524,0.637329 0.80077,0.597198 0.893631,-0.058228c0.040869,-0.288666 0.199499,-0.524933 0.352409,-0.525116c0.18861,-0.000244 0.278111,0.444855 0.278111,1.383453c0,1.256561 0.043221,1.383789 0.46987,1.383789c0.31111,0 0.49575,-0.147919 0.546341,-0.437683c0.057129,-0.327209 0.185539,-0.409515 0.508888,-0.326141c0.237841,0.06131 0.497971,0.02536 0.578091,-0.079926c0.095951,-0.126068 0.3435,-0.118164 0.72563,0.023254c0.31897,0.117981 0.630949,0.173218 0.693262,0.122589c0.19244,-0.156281 0.209579,-1.374512 0.026649,-1.894745c-0.161621,-0.459473 -0.1269,-0.488037 0.50174,-0.413116c0.419361,0.050018 0.787529,-0.029297 0.971371,-0.209198c0.262138,-0.256531 0.348038,-0.247498 0.750229,0.079163c0.575001,0.46698 0.582359,0.742004 0.016628,0.621857c-0.560978,-0.119141 -0.86927,0.675629 -0.407558,1.050659c0.259251,0.21048 0.40242,0.212372 0.80085,0.010254c0.374119,-0.189728 0.609509,-0.195831 1.028332,-0.026672c1.027229,0.415009 4.029758,0.585388 5.359699,0.30426c0.667049,-0.141052 0.837009,-0.276886 0.899918,-0.719238c0.042683,-0.299896 -0.110668,-0.829254 -0.340748,-1.17627c-0.378971,-0.571503 -0.38414,-0.663269 -0.054581,-0.974457c0.200069,-0.188934 0.429409,-0.493774 0.509602,-0.677429c0.178818,-0.409485 0.533348,-0.433167 0.715439,-0.047729c0.074379,0.157471 0.24427,0.286255 0.37756,0.286255c0.311039,0 0.317051,-0.703278 0.007389,-0.858673c-0.407127,-0.204346 -0.255348,-0.477112 0.265499,-0.477112c0.454151,0 0.489441,-0.079407 0.38129,-0.858582c-0.141659,-1.020813 -0.503819,-1.431274 -1.262959,-1.431274c-0.30724,0 -0.558601,-0.085846 -0.558601,-0.190796c0,-0.10495 0.20377,-0.190796 0.452869,-0.190796c0.249073,0 0.657471,-0.211334 0.907581,-0.469543c0.399372,-0.412354 0.507622,-0.438141 0.889271,-0.211456c0.380951,0.226227 0.39325,0.298401 0.099819,0.585602c-0.292431,0.286102 -0.28389,0.357666 0.067581,0.566437c0.471649,0.28006 0.527279,1.196411 0.117088,1.927612c-0.25491,0.454376 -0.22443,0.548492 0.286472,0.88446c0.480297,0.315857 0.779507,0.35556 1.871159,0.248444c0.71471,-0.07016 1.546501,-0.256287 1.848511,-0.413635c0.810318,-0.422302 0.890541,-0.166687 0.166931,0.531769l-0.634792,0.61264l1.200439,0.479706c1.110241,0.443634 1.229252,0.456268 1.583912,0.168213c0.299519,-0.243225 0.322968,-0.370575 0.107178,-0.581787c-0.151978,-0.148682 -0.258278,-0.432098 -0.236298,-0.62973c0.106739,-0.958801 -0.04282,-1.408905 -0.468262,-1.408905c-0.583298,0 -1.915688,-0.552246 -1.915688,-0.794037c0,-0.119171 0.35043,-0.145538 0.91132,-0.068573c0.86013,0.118042 0.925388,0.092194 1.162529,-0.460266c0.270641,-0.630646 0.508251,-0.701904 1.256161,-0.376831c0.33548,0.145844 0.553928,0.148163 0.72678,0.007813c0.332848,-0.270325 2.265038,-0.046387 2.923149,0.338806c0.321899,0.188385 0.471889,0.430237 0.395329,0.637543c-0.067879,0.183624 -0.010548,0.333893 0.127373,0.333893c0.13797,0 0.25079,-0.119049 0.25079,-0.264557c0,-0.321686 1.322208,-0.512238 2.037647,-0.293701c0.680931,0.208008 1.186291,-0.234833 0.667221,-0.584717c-0.195431,-0.131714 -0.355309,-0.411469 -0.355309,-0.621613c0,-0.322815 -0.109421,-0.36438 -0.704849,-0.267639c-0.53104,0.086212 -0.704903,0.044312 -0.704903,-0.170013c0,-0.196411 -0.21096,-0.271423 -0.681431,-0.24234c-0.843998,0.052277 -1.478619,-0.349915 -1.385727,-0.878143c0.056259,-0.319763 0.20908,-0.386047 0.77494,-0.336273c0.387657,0.034088 0.88987,0.197693 1.116009,0.363495c0.534569,0.391998 0.534569,0.139893 0,-0.311905c-0.382919,-0.32373 -0.815971,-0.44989 -2.469879,-0.71965c-0.842793,-0.137421 -1.027702,-0.403839 -0.549763,-0.791992c0.315853,-0.256561 0.466213,-0.270218 0.846951,-0.077148c0.73336,0.372009 0.939449,0.283539 0.786499,-0.337616c-0.105499,-0.428406 -0.054077,-0.572464 0.204403,-0.572464c0.504898,0 1.252338,0.746414 1.167007,1.165512c-0.055347,0.272064 0.068192,0.361084 0.501293,0.361084c0.377148,0 0.61694,0.131165 0.697598,0.381622c0.16502,0.512421 0.871731,0.497894 0.871731,-0.017838c0,-0.239059 -0.188751,-0.439621 -0.469879,-0.499344c-0.258472,-0.054871 -0.469902,-0.16861 -0.469902,-0.252747c0,-0.084137 -0.06097,-0.281982 -0.135437,-0.439606c-0.091892,-0.194519 0.034309,-0.306915 0.392597,-0.349548c0.33403,-0.039795 0.72863,-0.356384 1.073711,-0.861542c0.499008,-0.73056 0.51363,-0.824585 0.171398,-1.1026c-0.315269,-0.256012 -0.32465,-0.352264 -0.05978,-0.611542c0.20628,-0.201843 0.344753,-1.026703 0.402523,-2.39743l0.088047,-2.089783l0.678143,-0.191986c0.372978,-0.105591 0.691349,-0.26947 0.707478,-0.364166c0.016171,-0.094666 0.05526,-0.408295 0.08691,-0.696899c0.03159,-0.288635 0.171673,-1.535889 0.311279,-2.771729c0.139572,-1.23584 0.192741,-2.665619 0.118103,-3.177368c-0.134399,-0.921844 0.096588,-3.181763 0.307678,-3.010284c0.060329,0.049011 0.150902,1.537506 0.201279,3.30777c0.050381,1.770233 0.098003,3.25061 0.105862,3.289703c0.00787,0.039093 0.177589,-0.038971 0.37722,-0.173553c0.244019,-0.16449 0.316448,-0.416107 0.221169,-0.768433c-0.08234,-0.304443 -0.03072,-0.579651 0.12318,-0.65686c0.180061,-0.090424 0.21331,-0.523773 0.10384,-1.353943c-0.112049,-0.849731 -0.081261,-1.220978 0.10136,-1.220978c0.144279,0 0.26231,-0.172882 0.26231,-0.384247c0,-0.211304 0.132118,-0.557404 0.293701,-0.769104c0.24205,-0.3172 0.231773,-0.416809 -0.058739,-0.566925c-0.272903,-0.140961 -0.206623,-0.182739 0.293732,-0.184998c0.355309,-0.001617 0.633575,-0.067322 0.618256,-0.146027c-0.015327,-0.078735 -0.01371,-0.271942 0.003624,-0.429352c0.027969,-0.254425 0.056656,-0.254425 0.259125,0c0.194649,0.244598 0.228333,0.237671 0.231422,-0.047699c0.001938,-0.183685 0.15593,-0.333954 0.342117,-0.333954c0.490692,0 0.685616,-0.355408 0.366333,-0.667877c-0.372711,-0.364716 -0.097328,-0.667877 0.606628,-0.667877c0.56353,0 0.56871,-0.012695 0.194054,-0.477051c-0.315315,-0.390869 -0.32486,-0.47702 -0.052704,-0.47702c0.182632,0 0.770828,-0.342468 1.307152,-0.760986c0.536308,-0.418518 1.039627,-0.676117 1.118538,-0.572479c0.239891,0.315308 0.770432,0.210388 0.73568,-0.145447c-0.023117,-0.236053 0.139542,-0.333954 0.554733,-0.333954c0.482071,0 0.598618,0.102722 0.650307,0.572479c0.098885,0.899872 0.564949,2.194458 0.789932,2.194458c0.11245,0 0.204399,-0.118286 0.204399,-0.262909c0,-0.144562 0.16716,-0.375458 0.371361,-0.513123c0.21611,-0.14566 0.328087,-0.434082 0.26786,-0.690002c-0.12455,-0.528931 0.452698,-1.030426 0.666107,-0.578735c0.074883,0.158447 0.11232,0.404236 0.083282,0.546234c-0.06749,0.329041 0.263618,0.979401 0.591431,1.161682c0.169449,0.094208 0.155807,0.141144 -0.041603,0.143127c-0.161514,0.001587 -0.293739,0.174622 -0.293739,0.384552c0,0.20993 0.079933,0.381653 0.177658,0.381653c0.097603,0 0.324852,0.279053 0.504921,0.620148c0.470924,0.892212 0.765396,1.164886 0.969063,0.897308c0.101486,-0.133362 0.222351,-0.035217 0.311409,0.253052c0.202324,0.654633 0.988274,0.853546 4.263229,1.078674c3.834671,0.263611 6.946968,0.571014 7.232643,0.714417c0.156006,0.078278 0.180466,1.944244 0.071846,5.481079c-0.140678,4.581207 -0.113998,5.417938 0.182961,5.743988c0.307182,0.337219 0.306641,0.418549 -0.004501,0.6987c-0.495377,0.446075 -0.323509,1.378448 0.270554,1.467682c0.258438,0.038849 0.558228,0.195343 0.666168,0.347778c0.107948,0.152435 0.42514,0.348938 0.704903,0.436676c0.468292,0.146881 0.474808,0.170563 0.082397,0.299103c-0.2985,0.097809 -0.531197,0.017822 -0.776939,-0.26709c-0.458893,-0.532135 -1.021622,-0.520081 -1.05677,0.022614c-0.18679,2.882813 -0.159172,3.978455 0.098473,3.909515c0.154999,-0.041412 0.315506,-0.26178 0.35685,-0.489655c0.047722,-0.263794 0.242577,-0.414429 0.53598,-0.414429c0.470436,0 0.535706,-0.083466 0.783531,-1.00177c0.114738,-0.425354 0.270615,-0.52478 0.822319,-0.52478c0.374466,0 0.719688,-0.094757 0.767265,-0.210602c0.047531,-0.115753 0.22142,0.217285 0.386436,0.740173l0.29998,0.950653l1.199806,0.093658c1.300293,0.101501 1.825783,0.458984 1.825783,1.24231c0,0.370178 0.088394,0.430725 0.481194,0.329468c0.523811,-0.13504 1.163445,0.187012 1.163445,0.585846c0,0.137512 -0.211464,0.304535 -0.469902,0.371124c-0.684601,0.176514 -0.574768,0.47641 0.176239,0.481354l0.646149,0.004211l-0.58741,0.376038c-0.497726,0.318573 -0.533554,0.404877 -0.234978,0.565216c0.193848,0.104156 0.731979,0.190674 1.195839,0.192261c0.673439,0.002319 0.897263,-0.093201 1.110939,-0.474121c0.201187,-0.358521 0.458687,-0.482422 1.036346,-0.49881c1.392776,-0.039429 2.015396,-0.140167 2.735748,-0.442749c1.094009,-0.459412 1.39164,-0.377777 1.703445,0.467499c0.226456,0.613708 0.36895,0.744049 0.716125,0.654541c0.23835,-0.061462 1.026871,0.108948 1.752251,0.378632c0.725327,0.269714 1.453346,0.490417 1.61776,0.490417c0.400864,0 0.561661,0.3909 0.415794,1.010712c-0.189484,0.804993 0.061646,1.148102 0.65239,0.891296c0.42038,-0.182739 0.46817,-0.323486 0.331917,-0.978394c-0.134163,-0.644775 -0.08213,-0.808777 0.33078,-1.043701c0.26947,-0.153259 0.577713,-0.553894 0.685059,-0.890289c0.244865,-0.767395 0.743607,-0.783478 1.213585,-0.039154c0.198753,0.31485 0.383461,0.604675 0.410355,0.644043c0.068489,0.100067 1.240456,0.089783 1.365746,-0.012024c0.139885,-0.113586 1.029152,-22.551971 1.40522,-35.45697c0.074951,-2.571411 0.194061,-4.997162 0.264771,-5.390747c0.139076,-0.774567 0.554802,-0.986816 0.560715,-0.286255c0.001961,0.236176 0.102776,0.556732 0.22403,0.712463c0.175041,0.224823 0.291718,0.146271 0.566765,-0.381653c0.190567,-0.365631 0.565491,-0.772766 0.833344,-0.904907c0.267723,-0.13205 0.486847,-0.411133 0.486847,-0.620178c0,-0.353607 0.159035,-0.379822 2.290794,-0.377869c3.315216,0.003021 4.052979,0.129578 4.052979,0.695435c0,0.314789 0.187401,0.514679 0.602661,0.642944c0.836899,0.258392 2.6231,0.233154 2.831001,-0.04007c0.16185,-0.212677 0.281029,-2.990692 0.696091,-16.232224c0.094574,-3.017395 0.248154,-5.48613 0.341248,-5.48613c0.238419,0 0.549286,1.129608 0.49881,1.812805l-0.042282,0.572464l0.360886,-0.52121c0.322311,-0.4655 0.487183,-0.518936 1.541122,-0.49968c0.933502,0.017105 1.301239,-0.070724 1.759445,-0.420341c0.424881,-0.324196 0.50116,-0.481117 0.286407,-0.588936c-0.170868,-0.085739 -0.372574,-0.031372 -0.484085,0.130592c-0.10527,0.152687 -0.429245,0.27758 -0.720016,0.27758c-0.290848,0 -0.637878,0.088684 -0.771378,0.197098c-0.133484,0.108391 -0.413651,0.143791 -0.622543,0.078682c-0.34079,-0.106247 -0.367676,-0.632454 -0.260529,-5.110771c0.142288,-5.950966 0.139191,-6.079796 -0.15097,-6.31546c-0.377075,-0.306259 -0.262146,-0.436279 0.494171,-0.559135c0.56131,-0.091179 0.808746,-0.286369 1.116058,-0.8806c0.293732,-0.568108 0.530121,-0.763985 0.923477,-0.765419c0.290771,-0.001068 0.530273,0.1054 0.532211,0.23658c0.002411,0.160339 0.060226,0.171425 0.176239,0.033791c0.327606,-0.388565 1.040161,-0.463661 1.779953,-0.187515c0.408203,0.152328 1.101593,0.34906 1.540848,0.43718c0.98613,0.197769 1.485809,0.979294 0.729095,1.14003c-0.600708,0.127548 -0.612946,0.437027 -0.017349,0.437027c0.832138,0 1.258957,0.556763 1.086823,1.417633c-0.085434,0.427261 -0.149017,0.905624 -0.14122,1.063065c0.007797,0.157425 0.008865,0.612885 0.002289,1.012177c-0.008545,0.525543 0.136978,0.832428 0.5271,1.111755c0.296432,0.212219 0.428162,0.342041 0.292801,0.288498c-0.562057,-0.22229 -0.797653,0.254074 -0.933563,1.887314c-0.292801,3.519318 -0.158432,4.564758 0.607834,4.727478c0.452896,0.096191 0.526901,-0.065598 0.76828,-1.680588c0.047119,-0.314827 0.101425,0.774422 0.120773,2.420578c0.022125,1.879623 -0.065125,3.192833 -0.234573,3.530205c-0.387238,0.771248 -0.804718,15.631981 -0.448868,15.980217c0.143845,0.140778 1.44104,0.403412 2.883957,0.583893c1.442398,0.180359 2.774277,0.375275 2.959656,0.433044c0.28923,0.090118 0.324722,1.779694 0.249374,11.876343c-0.074066,9.925232 -0.035889,11.822174 0.243454,12.096344c0.18222,0.178864 0.487854,0.276398 0.679077,0.216797c0.19278,-0.060089 0.483292,0.048859 0.652069,0.244507c0.167435,0.194122 1.568756,0.805603 3.114182,1.358795c2.496536,0.893646 2.824677,1.066162 2.943115,1.546936c0.109558,0.445038 0.27034,0.551788 0.905807,0.60144l0.772568,0.060364l0.024475,9.445679c0.013443,5.195129 0.039856,9.547791 0.058746,9.672699c0.018814,0.124817 0.430725,0.253632 0.915344,0.286194c0.80545,0.054169 0.892761,0.116547 1.01712,0.727112c0.232559,1.141968 0.425003,0.244934 0.547134,-2.550659c0.063583,-1.455322 0.147339,-2.669922 0.186111,-2.699097c0.038788,-0.029175 0.969193,-0.113312 2.067627,-0.18689c1.098389,-0.073639 2.578613,-0.189941 3.289352,-0.258636l1.292221,-0.124756l0.117493,-2.499725c0.078857,-1.677338 0.220413,-2.600189 0.430328,-2.805206c0.194656,-0.190094 0.7715,-0.327087 1.527206,-0.36264c1.181122,-0.055573 1.216415,-0.074036 1.287933,-0.676636c0.0578,-0.486511 0.352264,-0.803864 1.372543,-1.478851c0.714371,-0.472656 1.368515,-0.864075 1.453613,-0.869781c0.085022,-0.005707 0.630417,-0.050476 1.211975,-0.099457c1.372543,-0.11557 1.591064,-0.112976 2.646423,0.031311c1.366623,0.186829 1.582733,-0.077698 1.582733,-1.937622c0,-1.424469 0.053696,-1.618347 0.522125,-1.884827c0.287277,-0.163391 0.930817,-0.297089 1.430222,-0.297089c0.783478,0 0.942703,-0.07489 1.161896,-0.5466c0.356171,-0.766296 1.037888,-1.047821 2.427094,-1.002167c0.848068,0.027863 1.286728,-0.048218 1.504028,-0.260864c0.252731,-0.247345 0.621613,-0.27771 2.093445,-0.172394c0.982559,0.070282 2.050888,0.211487 2.373932,0.31369c0.323044,0.102264 1.020401,0.218658 1.549667,0.258606l0.962387,0.072754l0.152725,-2.432343c0.084015,-1.33783 0.153183,-3.993896 0.153717,-5.902435c0.000534,-1.908569 0.101166,-3.684235 0.223694,-3.945923c0.149826,-0.320068 0.435287,-0.495911 0.871796,-0.537201c0.863449,-0.081573 0.967972,-0.453583 0.996613,-3.546906l0.023392,-2.531494l0.763626,-0.269196c0.419968,-0.148071 0.953674,-0.317322 1.185959,-0.376068c0.343674,-0.086914 0.393555,-0.231842 0.267532,-0.777191c-0.101563,-0.439911 -0.065002,-0.67038 0.106262,-0.67038c0.143646,0 0.261139,0.218048 0.261139,0.48465c0,0.905609 0.895111,1.896454 3.856979,4.26944c1.62616,1.302795 2.957092,2.462097 2.957565,2.57608c0.00087,0.20224 1.741364,0.875153 2.263626,0.875153c0.144318,0 0.39624,-0.130951 0.559845,-0.291077c0.265442,-0.259705 0.344681,-0.256287 0.736832,0.031921c0.258102,0.189697 1.189117,0.408173 2.257034,0.529572l1.817795,0.206635l-0.092758,9.684235l-0.092834,9.684174l0.680237,0.020203c0.373978,0.011139 0.979187,0.003967 1.344711,-0.015961c0.365585,-0.019867 0.87381,0.117584 1.129501,0.305481c0.341385,0.250916 1.007294,0.369415 2.507217,0.446136c2.299927,0.117706 2.629822,0.224884 2.629822,0.854034c0,0.7771 0.405792,0.853424 4.544876,0.854889c3.126083,0.001068 3.960571,-0.052643 4.059174,-0.261414c0.068283,-0.144531 0.20816,-0.84964 0.310806,-1.567017l0.186523,-1.30423l0.034485,1.144928c0.029495,0.97879 0.41626,2.099365 0.526901,1.526611c0.058685,-0.303986 0.121658,-0.904572 0.165085,-1.57431c0.064453,-0.99469 0.510101,-0.713776 0.510101,0.321472c0,1.441864 0.294067,1.899231 1.207596,1.878143c0.534698,-0.01236 0.861099,0.104858 1.097565,0.394135c0.269272,0.329346 0.568985,0.411713 1.498184,0.411713c2.037582,0 2.070511,0.044037 2.070511,2.773651c0,2.199615 0.033142,2.37851 0.441147,2.37851c0.242584,0 0.575638,-0.131683 0.740112,-0.292572c0.266312,-0.260681 0.352814,-0.252655 0.792343,0.073486c0.271347,0.201324 0.725861,0.423248 1.009979,0.493134c0.284195,0.069946 0.577393,0.282471 0.651535,0.47229c0.103165,0.264069 0.47554,0.374084 1.585007,0.468262c0.797592,0.067688 1.535492,0.053833 1.639679,-0.030823c0.104248,-0.084656 0.303406,-4.400055 0.442673,-9.589752c0.20932,-7.801758 0.312424,-9.485443 0.595337,-9.722076c0.287552,-0.240509 1.485062,-0.291687 7.50116,-0.320343c3.937439,-0.018768 7.723312,-0.09137 8.41301,-0.161346c1.019287,-0.103455 1.491882,-0.045349 2.524567,0.310303c0.698761,0.240662 1.35083,0.527924 1.449158,0.638367c0.098297,0.110504 0.107971,4.25824 0.021576,9.217224c-0.107178,6.151367 -0.080017,9.016327 0.085327,9.016327c0.160095,0 0.300964,-2.739258 0.41452,-8.062225c0.105988,-4.961243 0.264008,-8.153961 0.41095,-8.30072c0.131256,-0.131226 0.644928,-0.238556 1.141541,-0.238556c1.041016,0 1.38913,-0.352142 1.38913,-1.404968c0,-1.065948 0.438263,-1.266144 2.777588,-1.269165c2.419098,-0.003052 3.035187,-0.112793 3.214844,-0.57254c0.17337,-0.443665 2.145203,-0.653076 5.520386,-0.586304c4.366821,0.086426 4.5737,0.106049 4.653229,0.441223c0.13913,0.586548 1.101593,0.875092 3.353943,1.005524c1.217285,0.070496 2.414856,0.173981 2.661346,0.230072c0.433746,0.098602 0.443542,0.329102 0.307587,7.231049c-0.07724,3.921021 -0.059692,7.169678 0.038971,7.219177c0.158508,0.07959 0.525024,-3.506195 0.846863,-8.286774c0.359406,-5.337219 0.808258,-7.639465 1.59256,-8.168121c0.171661,-0.115631 1.871216,-0.217773 4.052155,-0.243469c2.066223,-0.024261 3.888855,-0.082886 4.050293,-0.130249c0.194336,-0.056885 0.293671,-0.509491 0.293671,-1.337738c0,-1.493256 0.276215,-1.470062 0.321167,0.026917c0.017212,0.573822 0.118225,1.114807 0.224365,1.202179c0.106262,0.087433 1.850311,0.287689 3.875793,0.445129l3.68277,0.286224l0.328094,0.763306c0.180389,0.419769 0.392273,1.706909 0.470825,2.860291l0.1427,2.096985l1.292297,0.143616c0.710693,0.078949 1.5383,0.190536 1.839111,0.247894l0.546783,0.104279l-0.059601,11.811279c-0.062439,12.378876 -0.059692,12.415161 0.933075,12.404205c0.210327,-0.00235 0.646759,-0.169189 0.969788,-0.370728l0.587402,-0.366394l0.164276,-8.339691c0.090332,-4.586792 0.219208,-8.455872 0.286346,-8.597931c0.079651,-0.16864 0.522339,-0.258301 1.275421,-0.258301c0.695007,0 1.260498,-0.104828 1.422974,-0.263824c0.174225,-0.170502 0.296021,-1.486862 0.34433,-3.722961c0.04129,-1.902618 0.147614,-3.518219 0.236328,-3.590302c0.088867,-0.072083 0.15036,1.515259 0.136871,3.527527c-0.01358,2.012253 0.042328,3.746552 0.124146,3.854065c0.081787,0.107559 0.664886,0.195496 1.295776,0.195496c0.63089,0 1.219025,0.094666 1.307007,0.210312c0.088013,0.115662 0.146606,0.952911 0.130157,1.860519c-0.036041,1.988312 0.130524,2.302032 0.982269,1.848801c0.508362,-0.270538 0.801147,-0.288406 1.93631,-0.11795c0.735657,0.110428 1.457428,0.138062 1.604034,0.061371c0.431519,-0.225891 1.413422,-0.196823 1.79364,0.053101c0.193878,0.12738 0.957642,0.279419 1.697418,0.337891c0.739716,0.058456 1.453339,0.160721 1.585968,0.227249c0.153992,0.077301 0.240967,1.803497 0.240967,4.784821l0,4.66391l1.028534,0c0.565674,0 1.131104,-0.107361 1.25647,-0.23851c0.412567,-0.431671 1.239319,-4.651611 1.239319,-6.325653c0,-1.624619 0.005859,-1.64119 0.58902,-1.64119c0.588196,0 0.588806,0.00177 0.439911,1.383453c-0.082001,0.760895 -0.241425,1.465027 -0.354065,1.564728c-0.422791,0.373871 -0.210266,1.264511 0.404022,1.693649c0.633301,0.442429 0.75235,0.950043 0.458893,1.957962c-0.216248,0.742859 0.309937,1.223907 1.338654,1.223907c0.400543,0 0.92926,0.14772 1.174866,0.328262c0.339325,0.249298 0.909515,0.33374 2.371918,0.351059c1.058929,0.012543 2.169739,0.129089 2.468506,0.258881c0.298645,0.129898 0.696289,0.188339 0.883698,0.129959c0.187256,-0.05835 0.519714,0.063828 0.738647,0.271561c0.350372,0.332352 0.695251,0.37735 2.871796,0.375061c3.168945,-0.003311 3.486084,-0.075439 3.647247,-0.829391c0.070465,-0.329559 0.205231,-2.658157 0.299469,-5.174667l0.171448,-4.57547l0.704834,-0.175781c0.387695,-0.09668 1.038086,-0.291733 1.445221,-0.433563c0.407257,-0.1418 1.008636,-0.257797 1.336639,-0.257797c0.527588,0 0.614685,-0.100082 0.756714,-0.869583c0.112122,-0.607086 0.325073,-0.957077 0.705444,-1.159515c0.299652,-0.159485 0.577515,-0.516113 0.617432,-0.792603c0.081604,-0.564758 0.623047,-0.753998 2.245972,-0.784912l0.998474,-0.019028l0.050629,-4.818253c0.027893,-2.650085 0.05423,-5.393066 0.058746,-6.095627c0.004425,-0.70253 0.1138,-1.355911 0.243103,-1.451981c0.208038,-0.154541 1.740448,-0.408478 4.699005,-0.778641c0.884979,-0.110748 0.946747,-0.161362 1.057373,-0.865982c0.064606,-0.411606 0.236542,-0.780197 0.382202,-0.819046c0.384613,-0.102692 0.595001,0.48616 0.321838,0.900818c-0.128723,0.195358 -0.234131,0.393829 -0.234131,0.440933c0,0.244446 1.613464,0.35495 7.239563,0.495667c3.490204,0.087311 6.283539,0.236923 6.414825,0.343521c0.147125,0.119461 0.24942,4.384048 0.27887,11.61528l0.046448,11.426422l1.784058,-0.012421c0.981201,-0.006912 1.94281,-0.062012 2.136932,-0.122482c0.27417,-0.085449 0.38916,-0.632767 0.516083,-2.456589c0.089783,-1.290649 0.220581,-2.39328 0.29071,-2.450348c0.070099,-0.057022 1.077515,-0.15097 2.238678,-0.208801c1.473114,-0.073303 2.174377,-0.18811 2.320221,-0.379822c0.17868,-0.234741 0.314178,-0.22435 0.93103,0.071579c0.536774,0.257492 1.458038,0.379379 3.592957,0.47525l2.871063,0.128952l0.1427,2.480682c0.078369,1.364349 0.157684,2.50885 0.176147,2.543274c0.018433,0.034454 0.377167,0.043442 0.797119,0.019974c1.597992,-0.089279 3.465668,0.020462 3.465668,0.203659c0,0.104919 -0.449341,0.201569 -0.998627,0.214691l-0.998566,0.023911l1.057373,0.152756c0.581421,0.084045 1.494415,0.15918 2.028778,0.166962c0.759064,0.011063 1.053528,0.115723 1.346405,0.478851c0.24472,0.303314 0.641693,0.485504 1.143066,0.52475l0.768158,0.060089l0.063782,3.768723c0.038727,2.295761 0.153595,3.768723 0.293671,3.768723c0.126434,0 0.22995,-0.254593 0.22995,-0.565735c0,-0.676498 0.530792,-0.959778 1.805481,-0.963501c1.366364,-0.003937 1.90033,-0.180115 2.054108,-0.677734c0.077087,-0.249451 0.350464,-0.544891 0.6073,-0.656555c0.481323,-0.209259 0.64978,-0.762085 0.232178,-0.762085c-0.129211,0 -0.234924,-0.171753 -0.234924,-0.381622c0,-0.209961 0.156525,-0.381683 0.347961,-0.381683c0.371094,0 0.417969,-0.12384 0.830109,-2.194427c0.372314,-1.870041 0.941437,-4.337402 1.07486,-4.659363c0.343475,-0.829208 0.866547,1.238724 2.078522,8.216675c0.133423,0.768326 0.237823,0.898834 0.786835,0.984039c0.348236,0.054077 0.812286,0.020386 1.031281,-0.074753c0.218994,-0.09523 0.775208,-0.173141 1.236053,-0.173141c0.726532,0 0.837708,0.060501 0.837708,0.455841c0,0.369171 0.15506,0.479431 0.815918,0.580109c0.448883,0.06839 0.906952,0.256424 1.018188,0.417862c0.168793,0.244843 0.269867,0.209793 0.609528,-0.211258c0.32016,-0.396759 0.347443,-0.563324 0.127838,-0.778229c-0.217773,-0.213074 -0.208221,-0.343521 0.04303,-0.590744c0.251373,-0.24733 0.25769,-0.335007 0.028748,-0.397598c-0.161499,-0.044098 -0.293732,-0.24057 -0.293732,-0.436493c0,-0.195938 -0.17334,-0.435059 -0.385406,-0.531418c-0.211945,-0.096359 -0.310333,-0.273788 -0.218658,-0.394272c0.091614,-0.120468 0.252655,-0.175858 0.357788,-0.123138c0.105133,0.05278 0.455383,-0.072891 0.778442,-0.279251c0.323029,-0.206436 0.864136,-0.460739 1.202362,-0.565201c0.388214,-0.119827 0.615021,-0.334656 0.615021,-0.582245c0,-0.21582 0.132141,-0.431473 0.293732,-0.47934c0.882416,-0.261261 5.450012,-0.624252 8.237305,-0.654633c0.492157,-0.005341 0.837646,-0.084808 0.767822,-0.176697c-0.147491,-0.193787 0.522064,-1.885864 0.801727,-2.026215c0.103729,-0.052017 0.47168,0.024689 0.817749,0.170532c0.741943,0.312561 2.403717,0.196671 2.977081,-0.207642c0.256744,-0.181 0.846771,-0.258362 1.765472,-0.231445c1.303864,0.038239 1.954041,-0.12262 2.900513,-0.717453c0.193787,-0.121872 0.958832,-0.207748 1.700104,-0.190872c1.235748,0.028152 1.430878,0.095703 2.349579,0.81311c0.997498,0.779053 1.011353,0.782867 3.249634,0.899002c1.236298,0.064102 2.414124,0.168472 2.617462,0.231766c0.256836,0.080063 0.419159,0.490204 0.531616,1.343201c0.167419,1.270081 0.39624,1.50354 0.829376,0.846313c0.138306,-0.20993 0.204407,-0.381653 0.146912,-0.381653c-0.057526,0 0.040741,-0.493774 0.218323,-1.09726c0.177582,-0.603455 0.339172,-1.998871 0.359009,-3.10083c0.019897,-1.10199 0.103455,-2.261261 0.18573,-2.576111c0.134277,-0.514038 0.251312,-0.578461 1.146973,-0.631134c0.938385,-0.055176 0.997467,-0.092987 0.997467,-0.638c0,-0.418884 0.130066,-0.607056 0.469849,-0.679199c0.295135,-0.062653 0.469971,-0.260284 0.469971,-0.531204c0,-0.630051 0.546539,-0.898392 1.691406,-0.830551l1.010529,0.059875l0.069427,-1.282837c0.058167,-1.075317 0.149231,-1.317566 0.56308,-1.497437c0.642914,-0.27951 0.967987,0.137939 1.129639,1.450806l0.117493,0.954071l1.709686,0.124023c1.992554,0.144531 2.401978,0.355042 2.401978,1.235077c0,0.354523 0.105743,0.644562 0.234985,0.644562c0.129242,0 0.234985,-0.128845 0.234985,-0.286209c0,-0.212021 0.274048,-0.28627 1.057251,-0.28627c0.900604,0 1.05722,0.056549 1.05722,0.381653c0,0.696106 1.425995,1.526581 2.621429,1.526581c0.46051,0 0.473541,-0.093414 0.395844,-2.833435c-0.056061,-1.980438 -0.173431,-2.924469 -0.38974,-3.135788c-0.258026,-0.252243 -0.246338,-0.380539 0.070587,-0.773453c0.599304,-0.742706 0.850433,-3.594208 0.80954,-9.190948l-0.037567,-5.152222l0.997101,-1.717377c0.548401,-0.94458 1.416626,-2.43808 1.929413,-3.318909c0.70462,-1.210236 0.897736,-1.742249 0.790405,-2.177795c-0.092438,-0.375336 -0.023193,-0.682892 0.198334,-0.881744c0.260956,-0.234131 0.376831,-1.195435 0.496613,-4.119263c0.086029,-2.097687 0.213074,-3.889954 0.28244,-3.982819c0.305542,-0.409576 0.748383,0.854126 0.7612,2.172516c0.007599,0.78717 0.118927,1.774628 0.247162,2.194458c0.128265,0.4198 0.271301,1.475403 0.317749,2.345703c0.046417,0.870361 0.138733,1.626526 0.205048,1.680389c0.108917,0.088501 4.899933,0.471069 6.63382,0.529755l0.704834,0.023895l0.06189,-1.335785c0.034088,-0.73468 0.158112,-1.507477 0.275543,-1.717377c0.117493,-0.20993 0.276855,-1.218597 0.353943,-2.241547c0.131744,-1.746277 0.453918,-2.815247 0.848389,-2.815247c0.364868,0 0.441956,0.660034 0.335876,2.876556c-0.065857,1.376892 -0.005432,2.617798 0.15097,3.097443c0.143372,0.440063 0.247375,1.0578 0.231018,1.37265c-0.016449,0.31485 -0.037415,0.830048 -0.046783,1.144958c-0.010345,0.352448 0.756073,1.855804 1.994171,3.911835l2.010895,3.339355l-0.187927,4.865967c-0.113922,2.950592 -0.100677,5.203949 0.033691,5.72464c0.121796,0.47229 0.241486,3.821198 0.266022,7.442078c0.060638,8.965363 0.034027,8.586975 0.603394,8.586975c0.501923,0 0.655914,-0.490326 0.19339,-0.61557c-0.152039,-0.041138 -0.197693,-0.178528 -0.101288,-0.305206c0.238068,-0.312805 0.612793,-0.095123 0.612793,0.355927c0,0.424652 1.204529,0.778595 1.360046,0.399658c0.056732,-0.138306 0.405334,-0.002411 0.901581,0.351501c0.445038,0.317352 1.016907,0.576965 1.270905,0.576965c0.253937,0 0.461639,0.078247 0.461639,0.17392c0,0.259674 0.662811,0.130951 1.180939,-0.229279c0.250641,-0.174286 0.617432,-0.266418 0.815125,-0.204773c0.427277,0.133179 1.034576,-0.236633 1.292145,-0.786835c0.14505,-0.309845 0.413788,-0.402863 1.24881,-0.432404c0.626709,-0.022156 1.500916,-0.235687 2.12677,-0.519501c0.584442,-0.264984 1.333099,-0.481812 1.663544,-0.481812c0.511108,0 0.600983,0.085602 0.600983,0.572449c0,0.31488 0.105652,0.572479 0.234894,0.572479c0.129272,0 0.236603,-0.107361 0.238556,-0.238525c0.002502,-0.165039 0.056793,-0.173859 0.176239,-0.028595c0.094971,0.115509 0.408142,0.310699 0.696014,0.433807c0.440155,0.188171 0.501587,0.177826 0.38678,-0.065247c-0.182556,-0.386444 0.524353,-0.592285 0.979797,-0.285309c0.293549,0.197815 0.413788,0.177124 0.678284,-0.116577c0.176849,-0.196411 0.284332,-0.513977 0.238892,-0.705719c-0.045502,-0.191711 0.070831,-0.396393 0.258514,-0.454926c0.271942,-0.084747 0.345001,-0.595947 0.360077,-2.51889c0.010406,-1.326904 0.142548,-2.798492 0.293732,-3.270264c0.264008,-0.824188 0.317719,-0.864105 1.373871,-1.019989c1.040466,-0.153564 1.105408,-0.199463 1.215088,-0.85965c0.06366,-0.383606 0.130066,-1.126801 0.147522,-1.65155c0.037292,-1.127075 0.294678,-1.423706 0.947754,-1.092499c0.790466,0.401001 2.255676,0.290466 2.88092,-0.217285c0.517273,-0.420105 0.638184,-0.437347 1.759644,-0.250732c0.662415,0.110168 1.15802,0.261261 1.101379,0.335663c-0.31311,0.411346 1.725403,0.485138 2.375183,0.085999c0.525635,-0.322937 2.147522,-0.367401 3.510376,-0.096222c1.657776,0.329803 5.547974,0.430328 6.524475,0.16861c0.680115,-0.182312 0.955688,-0.185974 1.165588,-0.015503c0.338745,0.275116 2.385925,0.305634 2.178101,0.03244c-0.326538,-0.429016 2.756287,-0.019379 3.324097,0.441742c0.088501,0.071869 0.386536,0.130737 0.66217,0.130737c0.776489,0 1.065186,0.375854 1.065186,1.38678c0,0.845428 0.042603,0.917816 0.475159,0.806305c0.739197,-0.190521 1.850525,0.085663 2.145447,0.533203c0.166992,0.253418 0.257935,1.410614 0.242676,3.086731c-0.014465,1.571808 0.075989,2.799194 0.218628,2.966156c0.183167,0.214569 0.272644,0.225983 0.362366,0.046326c0.145325,-0.290863 1.007996,-0.307495 1.489746,-0.028687c0.265625,0.153656 0.149719,0.175415 -0.46991,0.088165c-0.792969,-0.111664 -0.804077,-0.105377 -0.308105,0.177399c0.60553,0.345215 2.422668,0.532257 2.422668,0.249329c0,-0.106201 0.156982,-0.144165 0.348816,-0.084381c0.205994,0.064148 0.451416,-0.046936 0.599243,-0.271149c0.137634,-0.208984 0.347778,-0.330963 0.466858,-0.27121c0.239197,0.120117 1.404541,-0.436768 1.404541,-0.671204c0,-0.081207 -0.132202,-0.143707 -0.293701,-0.138855c-0.817688,0.024689 -1.351013,-0.070831 -1.351013,-0.242065c0,-0.104919 0.247925,-0.190796 0.550964,-0.190796c0.30304,0 0.744141,-0.173401 0.980286,-0.385254c0.397522,-0.35672 0.501038,-0.787781 0.654907,-2.725494c0.031738,-0.398956 0.191956,-0.792877 0.356079,-0.875275c0.357483,-0.179413 0.591614,-2.086945 0.393555,-3.207581c-0.110901,-0.628174 -0.221741,-0.776062 -0.513367,-0.685181c-0.399902,0.124634 -0.398682,0.120361 0.262146,-0.932434c0.415344,-0.661957 0.418213,-0.738708 0.050415,-1.368256c-0.214294,-0.366791 -0.454834,-0.931366 -0.534302,-1.254608c-0.13739,-0.55777 0.008606,-0.691864 0.667542,-0.613007c0.091431,0.010925 0.22876,-0.257965 0.305237,-0.597565c0.18103,-0.802704 0.242615,-9.695496 0.093628,-13.497925c-0.063721,-1.62674 -0.028442,-4.004669 0.078613,-5.284241c0.236877,-2.833801 -0.068176,-6.889313 -0.53595,-7.124023c-0.269897,-0.135498 -0.266602,-0.243652 0.020569,-0.679565c0.187805,-0.285095 0.309631,-0.671692 0.27063,-0.85907c-0.120178,-0.576538 0.793945,-0.820953 3.408386,-0.911224c0.66571,-0.02298 0.770813,-0.103363 0.907288,-0.693848c0.164673,-0.713287 0.260376,-0.747345 1.906311,-0.67749c0.952637,0.040436 0.989563,0.019775 1.232178,-0.689941c0.137634,-0.402374 0.250732,-0.918579 0.251465,-1.147156c0.001526,-0.4729 1.021545,-1.206421 1.677734,-1.206421c0.353027,0 0.438171,-0.145294 0.438171,-0.747711c0,-1.034515 0.195068,-1.351349 0.832153,-1.351349c0.300903,0 0.818176,-0.08374 1.149658,-0.186096c0.570313,-0.176147 0.602783,-0.260651 0.605225,-1.574249c0.001465,-0.76355 0.068909,-1.713745 0.14978,-2.111633c0.140686,-0.69101 0.15918,-0.703796 0.415527,-0.286194c0.200867,0.327148 0.469299,0.437134 1.066833,0.437134c0.68634,0 0.824707,-0.079376 0.984497,-0.564789c0.125732,-0.381897 0.093201,-0.612671 -0.100525,-0.712616c-0.44104,-0.227631 -1.686584,-0.180756 -2.00177,0.075226c-0.219299,0.178131 -0.281921,0.023102 -0.281921,-0.697449c0,-0.885468 0.019043,-0.912445 0.429688,-0.610626c0.283264,0.20816 0.843811,0.315796 1.644714,0.315796c1.129944,0 1.217346,-0.033386 1.250122,-0.477051c0.01947,-0.26239 0.045837,-0.584381 0.058777,-0.715576c0.016846,-0.171326 -0.473022,-0.238525 -1.738647,-0.238525l-1.762146,0l-0.073547,-0.620178c-0.070374,-0.592194 0.235657,-0.833893 0.543518,-0.429352c0.210388,0.27652 1.926941,0.236542 2.049927,-0.047699c0.056885,-0.131195 0.036438,-0.453217 -0.045166,-0.715607c-0.132202,-0.425323 -0.274231,-0.478729 -1.311462,-0.492767l-1.163269,-0.015747l-0.07196,-1.121216c-0.126038,-1.965881 -0.095093,-1.995865 2.065247,-1.995865c1.644836,0 1.897766,0.046799 2.126038,0.393204c0.354675,0.53833 1.217285,0.416077 1.427795,-0.202362c0.089355,-0.26239 0.174561,-1.593384 0.189392,-2.957787c0.0271,-2.485359 0.222839,-3.2509 0.726379,-2.841835c0.158081,0.128326 0.274414,1.319138 0.303589,3.1064c0.050415,3.095688 0.113464,3.256302 1.280701,3.262741c0.360779,0.002014 0.528625,0.117645 0.528625,0.364166c0,0.378143 -0.432556,0.592865 -1.19397,0.592865c-0.456177,0 -0.545227,0.168091 -0.454773,0.858704c0.077209,0.5896 0.492004,0.883362 1.158691,0.820587c0.471558,-0.044495 0.607605,0.026794 0.607605,0.318329c0,0.28952 -0.228943,0.412354 -0.998657,0.53595c-0.825928,0.13269 -0.998535,0.235809 -0.998535,0.596619c0,0.660034 0.775513,1.152771 1.392395,0.884583c0.428833,-0.18631 0.522339,-0.148163 0.731018,0.297577c0.131592,0.281219 0.500671,0.76355 0.82019,1.071838c0.753845,0.727631 0.734558,1.064056 -0.065369,1.138824c-0.830261,0.077576 -1.000671,0.783936 -0.329956,1.367096c0.313965,0.272949 0.527893,0.812836 0.638123,1.610138c0.11261,0.815948 0.289063,1.253265 0.551758,1.367432c0.212402,0.092316 1.226074,0.262695 2.252563,0.378693c1.02655,0.115967 1.97522,0.299438 2.108276,0.407745c0.135681,0.110535 0.219299,0.883972 0.190369,1.7612c-0.074402,2.261047 -0.028442,2.35553 1.218567,2.507416c1.144531,0.139374 1.30072,0.255341 1.52063,1.128632c0.144653,0.574768 0.156555,0.578766 1.783386,0.600983c0.900757,0.01236 1.817566,0.089081 2.037598,0.170563c0.219971,0.081512 0.530762,0.08252 0.690613,0.002258c0.451904,-0.226807 5.674683,-0.269775 6.001648,-0.049438c0.157471,0.106171 0.495789,0.139069 0.751648,0.07312c0.652527,-0.168243 8.505859,-0.230042 8.62915,-0.067993c0.055664,0.07312 0.336914,0.083252 0.624817,0.022491c0.288208,-0.06076 0.851318,-0.128265 1.251709,-0.149963c0.40033,-0.021667 0.850708,-0.101044 1.000671,-0.176331c0.149963,-0.075317 0.456848,-0.092346 0.681702,-0.037933c0.806641,0.19516 3.741943,0.167206 6.126648,-0.058258c2.10968,-0.199493 2.500366,-0.191193 2.978149,0.063049c0.30249,0.16098 0.584229,0.216003 0.62616,0.122314c0.042053,-0.093689 1.292175,-0.230194 2.778259,-0.303375c1.486084,-0.073181 2.765259,-0.163055 2.842529,-0.199829c0.077393,-0.036652 1.261292,-0.152893 2.630859,-0.258301c1.687561,-0.129852 2.777039,-0.316498 3.380127,-0.57901c0.489624,-0.213104 1.041992,-0.387482 1.227539,-0.387482c0.185608,0 0.524109,-0.137207 0.752258,-0.304962c0.228149,-0.167664 0.527405,-0.248505 0.664612,-0.179535c0.175842,0.088226 0.249817,28.893616 0.249817,97.337799l0,97.212463l-304.499969,0l-304.500013,0l0,-76.678558l-0.000021,0zm362.741062,-66.864807c0.034485,-0.969482 0.141937,-1.849701 0.238953,-1.955933c0.096832,-0.106201 0.191956,-0.592377 0.211121,-1.080414c0.031464,-0.795715 -0.012787,-0.877075 -0.428711,-0.788696c-0.255157,0.054169 -0.470093,0.238739 -0.477783,0.410187c-0.186035,4.152161 -0.16568,5.177612 0.1026,5.177612c0.206146,0 0.309509,-0.515015 0.353821,-1.762756zm112.100372,-2.816986c0,-0.104919 -0.15863,-0.190765 -0.352478,-0.190765c-0.193787,0 -0.352417,0.085846 -0.352417,0.190765c0,0.10498 0.15863,0.190857 0.352417,0.190857c0.193848,0 0.352478,-0.085876 0.352478,-0.190857zm7.31665,-0.381592c0.666382,0 1.032379,-0.252991 0.802704,-0.55481c-0.074768,-0.098145 -0.63797,-0.041748 -1.299438,0.130096c-0.939148,0.243896 -1.115723,0.354065 -0.902374,0.562866c0.18399,0.180145 0.340332,0.19873 0.510254,0.06073c0.134674,-0.109375 0.534637,-0.198883 0.888855,-0.198883zm-444.800476,-2.576111c0,-0.15744 -0.171497,-0.286224 -0.381149,-0.286224c-0.312218,0 -0.328278,0.051788 -0.08876,0.286224c0.368309,0.360382 0.46991,0.360382 0.46991,0zm-32.834749,-0.55658c0.032301,-0.096222 -0.073429,-0.210663 -0.234949,-0.254425c-0.16152,-0.043701 -0.293701,0.063568 -0.293701,0.238525c0,0.32312 0.421211,0.335815 0.52865,0.0159zm31.425032,-0.49292c0,-0.105011 -0.105732,-0.190826 -0.234951,-0.190826c-0.129189,0 -0.234959,0.085815 -0.234959,0.190826c0,0.10495 0.10577,0.190796 0.234959,0.190796c0.129219,0 0.234951,-0.085846 0.234951,-0.190796zm-2.466991,-2.385284c0,-0.10495 -0.396481,-0.217468 -0.8811,-0.250061c-0.826248,-0.055542 -1.09935,0.104553 -0.713261,0.418121c0.244659,0.1987 1.59436,0.056458 1.59436,-0.16806zm3.784222,-0.443542c0.024738,-0.399506 -0.071682,-0.605988 -0.282951,-0.605988c-0.36636,0 -0.68943,0.826172 -0.447449,1.144165c0.288589,0.379242 0.69199,0.08197 0.7304,-0.538177zm-2.259502,0.255157c0.159512,-0.156097 0.223091,-0.425415 0.141361,-0.59845c-0.13615,-0.288116 -0.18787,-0.285858 -0.613682,0.0271c-0.25576,0.188019 -0.465027,0.457306 -0.465027,0.59848c0,0.343292 0.575829,0.32666 0.937347,-0.02713zm3.526791,-0.299957c0,-0.098755 -0.1586,-0.179535 -0.352451,-0.179535c-0.363327,0 -0.46674,0.225159 -0.202179,0.440063c0.187702,0.152435 0.55463,-0.019897 0.55463,-0.260529zm-5.46701,-1.324493c0.078953,0 0.33733,0.142456 0.574162,0.316528c0.603699,0.443726 1.60347,0.077454 1.60347,-0.587402c0,-0.607727 -0.327751,-0.760162 -0.993652,-0.462128c-0.293468,0.131317 -0.718536,0.215759 -0.944687,0.187653c-0.226151,-0.028076 -0.41116,0.03421 -0.41116,0.138489c0,0.104218 -0.22578,0.216949 -0.50177,0.250458c-0.275921,0.0336 -0.65871,0.253998 -0.850582,0.489929c-0.331841,0.407867 -0.310131,0.442169 0.442989,0.700714l0.79187,0.271881l0.072929,-0.653076c0.040092,-0.359192 0.137493,-0.653046 0.216431,-0.653046zm34.366299,0.965393c0,-0.098755 -0.105736,-0.232666 -0.234924,-0.297516c-0.129257,-0.06485 -0.234985,0.015961 -0.234985,0.179565c0,0.163635 0.105743,0.297516 0.234985,0.297516c0.129189,0 0.234924,-0.080811 0.234924,-0.179565zm0,-1.347046c0,-0.2099 -0.105736,-0.381622 -0.234924,-0.381622c-0.129257,0 -0.234985,0.171722 -0.234985,0.381622c0,0.20993 0.105743,0.381653 0.234985,0.381653c0.129189,0 0.234924,-0.171722 0.234924,-0.381653zm-30.485249,-0.098022c-0.08654,-0.277313 -0.59026,-0.228821 -0.712318,0.068542c-0.06863,0.167206 0.047451,0.232849 0.332848,0.188232c0.241001,-0.03772 0.4118,-0.153198 0.379471,-0.256775zm30.584461,-1.723541c0.166077,-0.537537 -0.011703,-0.916351 -0.350403,-0.746368c-0.279549,0.14032 -0.28775,1.232239 -0.009209,1.232239c0.115211,0 0.277,-0.218658 0.359612,-0.48587zm499.177345,-7.719513c0,-0.10495 -0.158508,-0.190796 -0.352356,-0.190796c-0.193848,0 -0.352478,0.085846 -0.352478,0.190796c0,0.10495 0.15863,0.190857 0.352478,0.190857c0.193848,0 0.352356,-0.085907 0.352356,-0.190857zm-2.075317,-0.743317c0.04303,-0.093964 1.241333,-0.220245 2.662842,-0.280609c1.421448,-0.060364 3.324524,-0.24295 4.229065,-0.405701c0.904541,-0.162781 2.807678,-0.329041 4.229187,-0.369507c1.421509,-0.040466 2.748657,-0.127197 2.949402,-0.192688c0.200623,-0.065552 0.549988,-0.373779 0.776428,-0.684967c0.369019,-0.507568 0.421021,-1.355316 0.504333,-8.229919c0.072876,-6.015778 0.15863,-7.697906 0.398376,-7.821472c0.319275,-0.164429 1.009216,-0.200195 4.572815,-0.236572c1.183838,-0.012115 2.236877,-0.090027 2.339783,-0.173187c0.102966,-0.083099 0.162476,-0.901001 0.132263,-1.817505c-0.037048,-1.124664 0.04248,-1.764954 0.24469,-1.969574c0.204102,-0.206635 1.03894,-0.373688 2.621826,-0.524536c1.277161,-0.121765 2.403809,-0.26236 2.50354,-0.312469c0.35321,-0.177216 -0.057617,-0.810608 -0.675354,-1.04126c-0.363464,-0.135712 -1.538391,-0.227051 -2.799561,-0.217743c-1.771545,0.013123 -2.173279,-0.036133 -2.173279,-0.266479c0,-0.370941 -0.151611,-0.35672 -0.916504,0.085571c-0.412842,0.238708 -0.752075,0.310242 -0.964966,0.20343c-0.180542,-0.090607 -0.421875,-0.117706 -0.53656,-0.060242c-0.184387,0.09259 -1.249634,0.094391 -6.275269,0.010651c-0.710693,-0.011841 -1.662354,-0.008728 -2.114563,0.006927c-0.452271,0.015656 -1.350952,0.028656 -1.997131,0.028931c-0.646118,0.000244 -1.862,0.01532 -2.701965,0.033508c-0.839905,0.018158 -2.002991,0.019928 -2.584473,0.004059c-1.454224,-0.039764 -5.033997,0.108398 -6.487671,0.268585l-1.201294,0.132294l-0.149719,1.438873c-0.191956,1.844086 -0.196716,20.988342 -0.005493,21.765106c0.124695,0.505981 0.26123,0.596161 0.998718,0.659637c1.676636,0.144409 2.343323,0.135254 2.420532,-0.033142zm-18.640808,-35.58374c0.099792,-0.709747 -0.231323,-0.982849 -0.860229,-0.709473c-0.413025,0.179535 -0.545837,0.761292 -0.301086,1.318451c0.014771,0.033478 0.264709,0.033478 0.555481,0c0.384949,-0.044434 0.549622,-0.20993 0.605835,-0.608978zm0.980042,-2.207703c0,-0.308624 -0.105652,-0.614258 -0.234924,-0.679138c-0.139832,-0.07016 -0.234985,0.157074 -0.234985,0.561249c0,0.373505 0.105774,0.679138 0.234985,0.679138c0.129272,0 0.234924,-0.252563 0.234924,-0.561249zm1.684937,-0.517853c0.585876,-0.430664 0.540466,-0.951904 -0.09491,-1.086853c-0.693481,-0.147278 -0.859314,0.033997 -0.71582,0.782471c0.136047,0.709442 0.217834,0.740143 0.81073,0.304382zm2.779236,-0.75415c0,-0.146179 -0.211487,-0.265778 -0.469971,-0.265778c-0.442261,0 -0.638855,0.371613 -0.329468,0.622894c0.228699,0.18573 0.799438,-0.069244 0.799438,-0.357117zm-2.396545,-1.830505c0.155029,-0.125977 0.281921,-0.426544 0.281921,-0.667908c0,-0.434448 -0.04718,-0.451477 -1.455872,-0.524963c-0.219299,-0.011414 -0.474792,-0.082672 -0.567871,-0.158203c-0.296631,-0.240906 -0.795715,-0.147614 -0.795715,0.148865c0,0.160492 0.209778,0.286224 0.477234,0.286224c0.431824,0 0.541382,0.119568 0.8302,0.906403c0.111389,0.303375 0.861145,0.309235 1.230103,0.009583zm-0.239685,-2.299408c0.234802,-0.232635 0.368286,-0.759979 0.313782,-1.240356c-0.015076,-0.132965 -0.339172,-0.238556 -0.731934,-0.238556c-0.660645,0 -0.704956,0.045929 -0.704956,0.731476c0,0.402313 0.070557,0.788727 0.156738,0.858704c0.247681,0.201233 0.704041,0.148682 0.96637,-0.111267zm-1.592957,-1.400452c0,-1.031158 -0.394836,-1.180359 -2.408264,-0.910065c-0.733154,0.098389 -0.881042,0.195221 -0.881042,0.576508c0,0.565277 0.645447,0.795929 2.173218,0.77655c0.9953,-0.012543 1.116089,-0.060486 1.116089,-0.442993zm-438.423615,-4.944412c0,-0.145035 -0.105728,-0.316772 -0.23494,-0.381653c-0.133759,-0.067139 -0.23497,0.097183 -0.23497,0.381653c0,0.28447 0.101212,0.448784 0.23497,0.381615c0.129211,-0.06485 0.23494,-0.23658 0.23494,-0.381615zm2.349533,-0.690384c0,-0.10495 -0.105728,-0.137772 -0.234924,-0.072891c-0.129257,0.064819 -0.234985,0.203781 -0.234985,0.308731c0,0.10498 0.105728,0.137772 0.234985,0.072891c0.129196,-0.06485 0.234924,-0.203781 0.234924,-0.308731zm0.777679,-2.922981c0.268738,-0.165474 0.333588,-0.307838 0.176239,-0.386841c-0.37851,-0.189964 -0.29776,-0.699318 0.153259,-0.967155c0.342941,-0.20369 0.355301,-0.284935 0.083801,-0.550598c-0.293854,-0.28756 -0.353943,-0.28569 -0.776001,0.024475c-0.437027,0.321213 -0.471176,0.320969 -0.766052,-0.006592c-0.208847,-0.231964 -0.361359,-0.273499 -0.471725,-0.128525c-0.089661,0.117828 0.024597,0.382599 0.253876,0.588348c0.31955,0.28685 0.352341,0.426529 0.140472,0.598618c-0.36586,0.297119 -0.348907,0.443665 0.092819,0.802399c0.444839,0.361267 0.564163,0.364044 1.113327,0.025871l-0.000015,0zm1.571838,-0.203087c0,-0.157379 -0.158569,-0.286224 -0.352402,-0.286224c-0.193848,0 -0.352417,0.128845 -0.352417,0.286224c0,0.15744 0.158569,0.286293 0.352417,0.286293c0.193832,0 0.352402,-0.128853 0.352402,-0.286293zm2.467041,-1.431152c-0.188538,-0.247757 -0.822342,-0.247757 -0.822342,0c0,0.10495 0.217712,0.190811 0.48378,0.190811c0.266083,0 0.418472,-0.085861 0.338562,-0.190811zm-3.275497,-0.97229c0.278534,-0.365982 -0.40155,-1.126755 -1.007233,-1.126755c-0.314529,0 -0.497681,0.083954 -0.416351,0.190826c0.079865,0.10498 0.033218,0.190826 -0.103638,0.190826c-0.394302,0 -0.177322,0.454376 0.338562,0.708832c0.592117,0.292 0.984924,0.30397 1.18866,0.03627zm-0.208252,-1.551819c1.092941,0.100052 1.483719,-0.090561 1.475937,-0.719849c-0.002838,-0.22406 -0.055588,-0.213699 -0.243057,0.047676c-0.303131,0.422707 -0.82515,0.430504 -1.021332,0.015282c-0.187469,-0.396912 0.285172,-0.652931 0.953842,-0.516647c0.27774,0.056625 0.568649,0.019287 0.646408,-0.082993c0.07785,-0.102249 -0.148529,-0.244705 -0.50296,-0.316551c-0.354492,-0.071861 -0.830399,-0.266685 -1.057632,-0.432976c-0.38562,-0.282242 -0.3871,-0.325623 -0.022247,-0.653c0.30896,-0.277359 0.321671,-0.350128 0.060623,-0.348083c-0.736023,0.005829 -1.375641,0.240509 -1.222214,0.448448c0.087921,0.11927 -0.0215,0.097267 -0.24324,-0.048897c-0.559021,-0.368393 -0.669586,-0.209503 -0.786758,1.131012c-0.102768,1.17569 0.226379,1.924011 0.683182,1.553009c0.117844,-0.095673 0.693527,-0.130058 1.279465,-0.076431l-0.000015,0zm2.07402,-2.628098c-0.18605,-0.244522 -0.352402,-0.244522 -0.352402,0c0,0.104965 0.111969,0.190842 0.24881,0.190842c0.136871,0 0.183441,-0.085876 0.103592,-0.190842zm1.184418,-0.966805c0.216232,-0.28418 -0.034409,-0.43866 -0.484299,-0.29847c-0.207642,0.064735 -0.311691,0.204132 -0.231232,0.309845c0.19043,0.250259 0.520462,0.245026 0.71553,-0.011375zm-4.412247,-1.324928c-0.1651,-0.21463 -0.33374,-0.288956 -0.383072,-0.168747c-0.048462,0.118118 0.056931,0.289375 0.234161,0.380569c0.462738,0.238068 0.478058,0.216225 0.148911,-0.211823zm1.230698,-0.676987c0,-0.410355 -0.474319,-0.528625 -1.074249,-0.267853c-0.504898,0.219452 -0.52179,0.265648 -0.172409,0.47316c0.465408,0.276344 1.246658,0.147667 1.246658,-0.205307zm1.409729,0.1064c0.285004,-0.149605 0.251251,-0.185532 -0.176178,-0.187904c-0.290771,-0.001595 -0.528641,0.082954 -0.528641,0.187904c0,0.239075 0.249298,0.239075 0.704819,0zm362.768478,80.422974c0,-0.292725 0.079376,-0.454498 0.1763,-0.359497c0.096924,0.09494 0.260468,0.224182 0.363525,0.28714c0.103027,0.062988 0.023712,0.224731 -0.176178,0.359528c-0.313354,0.211182 -0.363647,0.171539 -0.363647,-0.28717zm50.045197,-3.533051c0,-0.111176 -0.105652,-0.148956 -0.234985,-0.084106c-0.12915,0.06485 -0.234924,0.036163 -0.234924,-0.063751c0,-0.099915 0.158569,-0.23111 0.352417,-0.291534c0.239807,-0.074677 0.352478,0.010315 0.352478,0.265839c0,0.206604 -0.052856,0.375671 -0.117554,0.375671c-0.064575,0 -0.117432,-0.090973 -0.117432,-0.202118zm-310.139175,-0.608856c-0.000198,-0.026245 -0.157227,-0.771759 -0.348969,-1.656616c-0.351227,-1.621094 -0.340317,-1.863251 0.074921,-1.654846c0.298248,0.149719 1.052811,2.917175 0.863342,3.166229c-0.12677,0.166626 -0.588425,0.280334 -0.589294,0.145233zm306.979752,-1.844238c-0.075684,-0.099396 -0.037415,-0.230988 0.0849,-0.29248c0.122498,-0.061432 0.284546,-0.030365 0.360168,0.069061c0.075684,0.099396 0.037354,0.231018 -0.085083,0.292419c-0.122375,0.061493 -0.284363,0.030365 -0.359985,-0.069zm0.010498,-1.110748c-0.256165,-0.208069 -0.145935,-0.41629 0.329468,-0.622955c0.394409,-0.171448 0.46991,-0.145111 0.46991,0.163727c0,0.367737 -0.534119,0.674622 -0.799377,0.459229zm-502.236492,-1.874542c0,-0.163635 0.10577,-0.244446 0.234989,-0.179565c0.303989,0.152618 0.303989,0.477081 0,0.477081c-0.129219,0 -0.234989,-0.133911 -0.234989,-0.297516zm5.16901,-0.263733c0,-0.098755 0.105728,-0.232605 0.234951,-0.297455c0.129257,-0.064911 0.234959,0.0159 0.234959,0.179535c0,0.163574 -0.105701,0.297516 -0.234959,0.297516c-0.129223,0 -0.234951,-0.080811 -0.234951,-0.179596zm-1.167301,-1.006348c0.00729,-0.23941 0.697392,-1.100128 0.697392,-0.869781c0,0.063934 0.061069,0.245514 0.135708,0.403473c0.082142,0.173767 -0.05703,0.371002 -0.352409,0.49939c-0.376778,0.163757 -0.486439,0.156219 -0.48069,-0.033081zm-2.349541,-1.168182c-0.004597,-0.217255 0.260601,-0.43277 0.697403,-0.56662c0.387669,-0.118835 0.704857,-0.283142 0.704857,-0.365082c0,-0.08197 0.158592,-0.149017 0.352413,-0.149017c0.549328,0 0.413948,0.511902 -0.17617,0.66629c-0.290771,0.07608 -0.619862,0.125793 -0.731281,0.110535c-0.111439,-0.015289 -0.345951,0.125671 -0.521221,0.313232c-0.30489,0.326569 -0.31884,0.326141 -0.326,-0.009338zm8.450893,-1.235992c0,-0.100006 0.268497,-0.223541 0.59668,-0.274506c0.376579,-0.058441 0.564808,-0.013885 0.510227,0.12088c-0.107269,0.264862 -1.106907,0.403595 -1.106907,0.153625zm-8.223392,-0.501343c0,-0.151215 0.094631,-0.322449 0.210312,-0.380524c0.241879,-0.121429 0.533489,0.369446 0.321728,0.541443c-0.252129,0.204803 -0.53204,0.120117 -0.53204,-0.160919zm2.114571,-0.025238c0,-0.177704 0.159882,-0.275085 0.39167,-0.238525c0.589481,0.092834 0.67041,0.538757 0.097801,0.538757c-0.288589,0 -0.489471,-0.123199 -0.489471,-0.300232zm12.433472,-1.464844c-0.01049,-0.026276 -0.040432,-0.283844 -0.066513,-0.572479c-0.060898,-0.674011 0.606762,-0.717712 0.973621,-0.063751c0.20834,0.371307 0.189079,0.482727 -0.098942,0.572449c-0.369789,0.115265 -0.774799,0.147217 -0.808167,0.063782zm258.057438,-5.581543c-0.002625,-0.41983 0.043427,-0.614044 0.102234,-0.43161c0.058807,0.182434 0.060974,0.52594 0.0047,0.763275c-0.056183,0.237427 -0.104248,0.088135 -0.106934,-0.331665zm-90.427948,-1.23291c0.08577,-0.83551 0.215973,-3.56189 0.289368,-6.058594c0.146133,-4.974396 0.556534,-6.583374 0.596878,-2.339722c0.030106,3.179382 0.023193,4.016449 -0.048126,5.767029c-0.030991,0.760925 0.020432,1.881775 0.114395,2.490814c0.17894,1.1604 -0.046982,1.659607 -0.751083,1.659607c-0.30307,0 -0.33371,-0.231049 -0.201431,-1.519135zm-163.597691,-10.582184c-0.010181,-0.201111 0.045368,-0.313812 0.12344,-0.250427c0.078068,0.063416 0.086411,0.227997 0.01852,0.365723c-0.074982,0.152222 -0.130672,0.107025 -0.14196,-0.115295zm131.320606,-10.808563c0,-0.340607 0.09787,-0.534637 0.234924,-0.46579c0.305893,0.153564 0.305893,1.04953 0,1.04953c-0.129196,0 -0.234924,-0.262726 -0.234924,-0.58374zm-65.552155,-29.216278c0,-0.542252 0.038864,-0.950119 0.086258,-0.906433c0.200043,0.184464 0.308243,1.892319 0.119904,1.892319c-0.113388,0 -0.206146,-0.443619 -0.206146,-0.985886l-0.000015,0zm-0.063568,-1.419266c-0.094246,-0.076523 -0.158974,-0.618568 -0.143845,-1.204559l0.02742,-1.065384l0.212067,1.038429c0.221878,1.08683 0.19252,1.465569 -0.095642,1.231514zm11.613495,-0.64798c0,-0.262375 0.053314,-0.369713 0.118423,-0.238525c0.065216,0.131203 0.065216,0.345871 0,0.47702c-0.065109,0.13121 -0.118423,0.023895 -0.118423,-0.238495zm-0.037094,-1.038269c0,-0.335159 0.140945,-0.384514 0.342392,-0.11985c0.07428,0.09771 0.027695,0.23159 -0.103638,0.297493c-0.131348,0.065948 -0.238754,-0.014008 -0.238754,-0.177643zm-12.013046,-2.53965c-0.016663,-0.39357 -0.06015,-1.080551 -0.096649,-1.526588c-0.03643,-0.446053 0.030113,-0.810982 0.147881,-0.810982c0.11776,0 0.215561,0.493752 0.217308,1.097221c0.00174,0.603485 0.06694,1.290451 0.144852,1.526581c0.085037,0.257599 0.036774,0.429352 -0.120651,0.429352c-0.144318,0 -0.276001,-0.321999 -0.29274,-0.715569l0,-0.000015zm0.97377,-3.805199c0.002609,-0.662827 0.066818,-0.838165 0.231354,-0.631432c0.298782,0.375496 0.298782,1.281212 0,1.43119c-0.144379,0.072433 -0.233582,-0.235901 -0.231354,-0.799759zm10.11795,0.243179c-0.010162,-0.201141 0.045364,-0.313881 0.123474,-0.25045c0.078033,0.0634 0.086365,0.227974 0.018478,0.365761c-0.074951,0.152191 -0.130661,0.10701 -0.141953,-0.115311zm250.442108,-61.651318c0,-0.532719 0.569183,-0.657841 0.797241,-0.17522c0.238281,0.50433 0.164032,0.652279 -0.327332,0.652279c-0.344604,0 -0.46991,-0.127209 -0.46991,-0.477058z" fill="#00589c"/>
 </g>
</svg>